<?xml version="1.0" encoding="UTF-8"?>
<svg id="NFX" xmlns="http://www.w3.org/2000/svg" viewBox="0 0 512 512">
  <defs>
    <style>
      .cls-1 {
        fill: #fff;
      }
    </style>
  </defs>
  <path id="X" class="cls-1" d="M452.14,410.63c-1.17-4.31-18.19-56.03-38.21-115.16-20.02,59.13-37.04,110.85-38.17,115.16-2.3,8.96,9.42,13.32,16.5,13.32h-70.33c1.08,0,7.88-1.5,13.36-4.69,3.38-1.92,7.22-4.6,14.35-19.6,9.14-19.18,31.27-81.59,51.62-141.51-19.88-58.33-40.04-115.96-48.81-137.2-6.14-14.77-21.15-18.01-23.3-18.01h70.33c-3.7,0-7.92,1.22-11.86,2.67-11.96,4.41-3.99,19.18-.8,30.34,3.56,12.66,14.21,45.67,27.15,84.45,12.89-38.78,23.54-71.79,27.1-84.45,3.19-11.16,11.16-25.93-.8-30.34-3.94-1.45-8.16-2.67-11.86-2.67h70.33c-2.16,0-17.16,3.24-23.3,18.01-8.77,21.24-28.93,78.87-48.81,137.2,20.35,59.92,42.48,122.33,51.62,141.51,7.08,15,10.97,17.68,14.35,19.6,5.49,3.19,12.24,4.69,13.36,4.69h-70.33c7.08,0,18.8-4.36,16.5-13.32Z"/>
  <path id="I" class="cls-1" d="M258.89,424.31h-68.73c12.33,0,22.31-15.12,22.31-33.72v-93.7l19.47-12.14,4.67-2.89v108.73c0,18.6,9.99,33.72,22.27,33.72Z"/>
  <path id="_-" data-name="-" class="cls-1" d="M298.24,220.14c0,6.14-1.65,11.87-4.54,16.82l-.05.05c-2.7,4.72-6.55,8.71-11.13,11.64-.55.37-1.15.69-1.74,1.05l-44.17,27.58-7.51,4.67-16.63,10.35-14.85,9.26-.18.09c-1.19.64-2.38,1.37-3.44,2.15-3.94,2.8-7.24,6.41-9.62,10.58-2.34,3.99-3.89,8.48-4.35,13.29-1.88-2.34-3.39-4.99-4.49-7.79-.55-1.19-.96-2.47-1.28-3.76-.41-1.33-.69-2.7-.82-4.12-.27-1.6-.41-3.21-.41-4.86,0-6.23,1.7-12.05,4.67-17.04,2.52-4.35,6.05-8.11,10.22-10.9l2.06-1.28,22.5-14.07,24.15-15.03,5.54-3.44,33.08-20.66c.64-.32,1.28-.73,1.88-1.15,4.21-2.84,7.74-6.64,10.26-11.09h.05c2.2-3.71,3.62-7.88,4.17-12.33,1.7,2.2,3.07,4.58,4.12,7.15.5,1.24.96,2.57,1.28,3.89.6,2.02.96,4.17,1.1,6.32.09.87.14,1.74.14,2.61Z"/>
  <path id="T" class="cls-1" d="M323.31,99.23c0,3.34-.46,6.55-1.37,9.58-4.12,13.93-17.09,24.15-32.35,24.15h-52.97v111.2l-24.15,15.03v-126.23c-2.43,0-4.81.27-7.1.82-14.98,3.3-26.25,16.59-26.44,32.49-.78-.73-1.51-1.56-2.15-2.38-.18-.14-.32-.32-.41-.5-.6-.73-1.19-1.51-1.7-2.34-3.48-5.27-5.54-11.64-5.54-18.51,0-3.34.5-6.55,1.37-9.58,1.7-5.68,4.86-10.77,9.07-14.75,3.71-3.62,8.2-6.32,13.24-7.88,3.16-.96,6.55-1.51,10.03-1.51h87.51c13.93,0,25.93-8.48,31.06-20.53,1.24,3.44,1.88,7.1,1.88,10.95Z"/>
  <path id="N" class="cls-1" d="M115.48,405.39c1.79-4.44,2.84-9.48,2.84-14.8l-.09-20.94-.37-93.42v-3.48l-.14-33.31v-.05l-.09-22.04v-.14c-.05-40.59-27.72-74.82-65.24-84.81v258.18c0,11.5,3.85,21.72,9.67,27.77,2.29,2.38,4.86,4.12,7.61,5.04,1.6.6,3.3.92,5.04.92H5.97c1.97,0,3.89-.37,5.73-1.15.78-.27,1.51-.64,2.25-1.1,1.97-1.1,3.76-2.61,5.31-4.49,2.57-2.79,4.63-6.37,6.14-10.49,1.83-4.9,2.89-10.49,2.89-16.49V102.94c8.29,0,16.36.92,24.1,2.7,26.62,5.96,49.57,21.58,64.97,43.02.09.09.14.14.23.23l-.05-12.23h.09c0-13.79,8.34-25.7,20.25-30.88,4.12-1.83,8.66-2.84,13.47-2.84,3.57,0,7.01.55,10.22,1.56-13.65,4.31-23.55,17.09-23.55,32.16h-.18v30.93l-.05,38.53v14.02l-.05,39.17-.78,131.31c0,18.6,12.74,33.68,25.02,33.68h-68.73c8.8,0,17.82-7.7,22.22-18.92Z"/>
</svg>